<svg width="190" height="143" viewBox="0 0 190 143" fill="none" xmlns="http://www.w3.org/2000/svg">
<g clip-path="url(#clip0_16_42)">
<path opacity="0.18" d="M83.964 0.137219C83.0927 0.106726 82.2264 0.0863982 81.3652 0.0660698C67.5402 -0.22361 53.4316 0.243943 40.3766 4.81275C27.3217 9.38155 15.2901 18.6411 10.2697 31.5496C7.67091 38.2529 7.05793 45.5305 6.09034 52.6556C4.28179 66.0164 1.13584 79.2604 0.968667 92.7381C0.801491 106.216 4.00823 120.405 13.2333 130.224C29.2366 147.279 51.4356 137.171 70.4785 132.577C81.7799 129.86 93.5362 129.65 104.927 131.962C112.445 133.486 119.704 136.114 127.217 137.73C132.622 138.894 138.246 139.534 143.752 138.817C149.041 138.131 153.119 135.6 157.937 133.563C167.106 129.659 176.377 124.689 182.223 116.309C186.703 109.73 188.76 101.791 188.039 93.8561C186.24 72.9382 166.762 64.1564 156.706 47.7158C150.85 38.1614 146.858 27.3264 139.325 19.0426C125.809 4.20289 104.157 0.782645 83.964 0.137219Z" fill="#B8C3D2"/>
<path d="M113.818 21.2177V124.969C113.818 127.372 112.866 129.677 111.172 131.376C109.478 133.075 107.181 134.03 104.785 134.03H60.0224C57.6268 134.03 55.3293 133.075 53.6354 131.376C51.9414 129.677 50.9898 127.372 50.9898 124.969V21.2177C50.9891 20.0274 51.2223 18.8485 51.6759 17.7486C52.1295 16.6486 52.7948 15.6491 53.6336 14.8071C54.4724 13.9651 55.4684 13.2972 56.5646 12.8415C57.6608 12.3858 58.8358 12.1513 60.0224 12.1513H104.785C105.972 12.1513 107.147 12.3858 108.243 12.8415C109.339 13.2972 110.335 13.9651 111.174 14.8071C112.013 15.6491 112.678 16.6486 113.132 17.7486C113.585 18.8485 113.818 20.0274 113.818 21.2177Z" fill="#B8C3D2"/>
<path d="M103.843 13.6912H60.9596C56.1361 13.6912 52.2259 17.6138 52.2259 22.4527V123.541C52.2259 128.38 56.1361 132.302 60.9596 132.302H103.843C108.666 132.302 112.576 128.38 112.576 123.541V22.4527C112.576 17.6138 108.666 13.6912 103.843 13.6912Z" fill="#473F47"/>
<path d="M110.935 23.4437V121.33C110.912 123.549 110.012 125.668 108.432 127.222C106.853 128.775 104.722 129.635 102.51 129.614H62.3324C60.8647 129.618 59.4209 129.24 58.1429 128.516C56.8613 127.806 55.7921 126.766 55.0457 125.502C54.2994 124.239 53.903 122.799 53.8976 121.33V23.4437C53.9217 21.2233 54.8238 19.1033 56.4055 17.5499C57.9872 15.9965 60.1191 15.1369 62.3324 15.1599H69.1208V16.3643C69.138 17.1545 69.3877 17.922 69.8383 18.5703C70.289 19.2186 70.9206 19.7189 71.6538 20.0082C72.1458 20.2028 72.67 20.3028 73.1989 20.303H91.8618C92.9306 20.3098 93.9588 19.8928 94.7226 19.1428C95.4864 18.3927 95.9239 17.3704 95.9399 16.2983V15.1599H102.526C104.687 15.1551 106.768 15.9765 108.346 17.457C109.164 18.2233 109.816 19.1503 110.261 20.1802C110.707 21.2102 110.936 22.321 110.935 23.4437Z" fill="white"/>
<path opacity="0.31" d="M85.0633 81.7404H61.7144C61.3087 81.7404 60.9798 82.0703 60.9798 82.4773V82.4824C60.9798 82.8894 61.3087 83.2193 61.7144 83.2193H85.0633C85.469 83.2193 85.7979 82.8894 85.7979 82.4824V82.4773C85.7979 82.0703 85.469 81.7404 85.0633 81.7404Z" fill="#B8C3D2"/>
<path opacity="0.31" d="M85.0633 85.3538H61.7144C61.3087 85.3538 60.9798 85.6837 60.9798 86.0907V86.0958C60.9798 86.5028 61.3087 86.8327 61.7144 86.8327H85.0633C85.469 86.8327 85.7979 86.5028 85.7979 86.0958V86.0907C85.7979 85.6837 85.469 85.3538 85.0633 85.3538Z" fill="#B8C3D2"/>
<path opacity="0.18" d="M113.818 68.4304H50.9847V72.3894H113.818V68.4304Z" fill="#B8C3D2"/>
<path d="M41.5874 58.4441H118.114C119.475 58.4441 120.78 58.9865 121.742 59.952C122.705 60.9174 123.245 62.2269 123.245 63.5922C123.245 64.9576 122.705 66.2671 121.742 67.2325C120.78 68.198 119.475 68.7404 118.114 68.7404H41.5874V58.4441Z" fill="#B8C3D2"/>
<path d="M103.382 58.4441H41.5874V68.7353H103.382V58.4441Z" fill="white"/>
<path d="M112.556 65.493C113.924 65.493 115.033 64.3803 115.033 63.0078C115.033 61.6353 113.924 60.5227 112.556 60.5227C111.188 60.5227 110.079 61.6353 110.079 63.0078C110.079 64.3803 111.188 65.493 112.556 65.493Z" stroke="white" stroke-width="1.57687" stroke-miterlimit="10"/>
<path d="M114.821 67.0481L113.807 65.1525" stroke="white" stroke-width="1.57687" stroke-miterlimit="10"/>
<path d="M99.7343 78.0762H62.1653C61.5106 78.0762 60.9798 78.6087 60.9798 79.2654C60.9798 79.9222 61.5106 80.4547 62.1653 80.4547H99.7343C100.389 80.4547 100.92 79.9222 100.92 79.2654C100.92 78.6087 100.389 78.0762 99.7343 78.0762Z" fill="#B8C3D2"/>
<path opacity="0.31" d="M85.0633 94.1763H61.7144C61.3087 94.1763 60.9798 94.5062 60.9798 94.9132V94.9183C60.9798 95.3253 61.3087 95.6552 61.7144 95.6552H85.0633C85.469 95.6552 85.7979 95.3253 85.7979 94.9183V94.9132C85.7979 94.5062 85.469 94.1763 85.0633 94.1763Z" fill="#B8C3D2"/>
<path opacity="0.31" d="M85.0633 97.7897H61.7144C61.3087 97.7897 60.9798 98.1196 60.9798 98.5266V98.5317C60.9798 98.9386 61.3087 99.2686 61.7144 99.2686H85.0633C85.469 99.2686 85.7979 98.9386 85.7979 98.5317V98.5266C85.7979 98.1196 85.469 97.7897 85.0633 97.7897Z" fill="#B8C3D2"/>
<path d="M99.7343 90.507H62.1653C61.5106 90.507 60.9798 91.0394 60.9798 91.6962C60.9798 92.353 61.5106 92.8854 62.1653 92.8854H99.7343C100.389 92.8854 100.92 92.353 100.92 91.6962C100.92 91.0394 100.389 90.507 99.7343 90.507Z" fill="#B8C3D2"/>
<path opacity="0.31" d="M85.0633 106.607H61.7144C61.3087 106.607 60.9798 106.937 60.9798 107.344V107.349C60.9798 107.756 61.3087 108.086 61.7144 108.086H85.0633C85.469 108.086 85.7979 107.756 85.7979 107.349V107.344C85.7979 106.937 85.469 106.607 85.0633 106.607Z" fill="#B8C3D2"/>
<path opacity="0.31" d="M85.0633 110.226H61.7144C61.3087 110.226 60.9798 110.556 60.9798 110.962V110.968C60.9798 111.375 61.3087 111.704 61.7144 111.704H85.0633C85.469 111.704 85.7979 111.375 85.7979 110.968V110.962C85.7979 110.556 85.469 110.226 85.0633 110.226Z" fill="#B8C3D2"/>
<path d="M99.7343 102.943H62.1653C61.5106 102.943 60.9798 103.475 60.9798 104.132C60.9798 104.789 61.5106 105.321 62.1653 105.321H99.7343C100.389 105.321 100.92 104.789 100.92 104.132C100.92 103.475 100.389 102.943 99.7343 102.943Z" fill="#B8C3D2"/>
<g opacity="0.41">
<path opacity="0.41" d="M105.758 43.4062C108.494 43.403 111.213 43.83 113.818 44.6716V40.9566C109.372 39.71 104.698 39.5123 100.163 40.3792C95.6286 41.246 91.3553 43.1539 87.6778 45.9533C84.0002 48.7528 81.0184 52.368 78.9654 56.5161C76.9125 60.6641 75.8443 65.2324 75.8443 69.8636C75.8443 74.4947 76.9125 79.0631 78.9654 83.2111C81.0184 87.3591 84.0002 90.9743 87.6778 93.7738C91.3553 96.5733 95.6286 98.4811 100.163 99.3479C104.698 100.215 109.372 100.017 113.818 98.7705V95.0555C110.192 96.2229 106.356 96.5886 102.576 96.1276C98.7956 95.6665 95.1596 94.3896 91.918 92.3847C88.6763 90.3797 85.9059 87.6943 83.7973 84.513C81.6887 81.3317 80.2919 77.73 79.7029 73.9556C79.1139 70.1812 79.3467 66.3236 80.3853 62.648C81.4239 58.9725 83.2436 55.5661 85.7194 52.6633C88.1952 49.7604 91.2683 47.4299 94.7274 45.8319C98.1865 44.2339 101.949 43.4063 105.758 43.4062Z" fill="url(#paint0_linear_16_42)"/>
</g>
<path d="M107.353 98.43C101.435 98.43 95.6489 96.6689 90.728 93.3695C85.8071 90.0701 81.9722 85.3806 79.7086 79.8943C77.445 74.408 76.8542 68.3715 78.0112 62.5483C79.1681 56.7252 82.0206 51.3771 86.208 47.1807C90.3954 42.9842 95.7293 40.128 101.535 38.9733C107.341 37.8186 113.358 38.4174 118.824 40.6938C124.291 42.9702 128.961 46.8221 132.245 51.762C135.529 56.7019 137.279 62.508 137.273 68.4457C137.256 76.3979 134.097 84.019 128.489 89.6393C122.881 95.2595 115.28 98.4206 107.353 98.43ZM107.353 41.9578C102.139 41.9578 97.0408 43.5087 92.7044 46.4145C88.368 49.3204 84.9877 53.4507 82.9907 58.2833C80.9936 63.116 80.4696 68.4342 81.4847 73.5656C82.4999 78.6969 85.0087 83.4113 88.694 87.1126C92.3794 90.8139 97.0758 93.3362 102.19 94.3605C107.304 95.3848 112.605 94.8652 117.425 92.8674C122.245 90.8695 126.366 87.4832 129.267 83.1363C132.169 78.7894 133.721 73.6771 133.727 68.4457C133.724 61.4282 130.945 54.6986 126 49.735C121.055 44.7715 114.349 41.9798 107.353 41.973V41.9578Z" fill="#B8C3D2"/>
<path d="M147.876 112.889C147.472 112.889 147.073 112.809 146.701 112.652C146.328 112.496 145.991 112.267 145.708 111.979L126.103 92.0215C125.821 91.7365 125.599 91.3985 125.448 91.0271C125.297 90.6556 125.22 90.2579 125.223 89.8568C125.225 89.4556 125.307 89.0589 125.462 88.6894C125.618 88.3199 125.845 87.9848 126.13 87.7033C126.414 87.4218 126.752 87.1995 127.123 87.0491C127.493 86.8987 127.89 86.8232 128.29 86.8268C128.69 86.8304 129.085 86.9132 129.453 87.0703C129.821 87.2274 130.154 87.4558 130.434 87.7424L150.039 107.7C150.459 108.128 150.744 108.671 150.858 109.261C150.971 109.851 150.909 110.461 150.678 111.016C150.447 111.57 150.057 112.044 149.559 112.377C149.06 112.71 148.475 112.888 147.876 112.889Z" fill="#B8C3D2"/>
<path d="M157.268 119.231C156.934 119.563 156.537 119.826 156.101 120.004C155.665 120.182 155.199 120.271 154.728 120.268C154.257 120.265 153.792 120.168 153.359 119.984C152.925 119.8 152.532 119.532 152.202 119.195L129.122 95.6958C128.993 95.5679 128.876 95.4284 128.772 95.2791C128.712 95.1978 128.656 95.1165 128.605 95.0352C128.441 94.7573 128.366 94.4352 128.392 94.1131C128.417 93.791 128.541 93.4846 128.747 93.2361C129.195 92.7005 129.685 92.2009 130.211 91.742C130.815 91.2036 131.47 90.7253 132.166 90.3139C132.451 90.1428 132.781 90.066 133.111 90.0943C133.442 90.1225 133.754 90.2545 134.005 90.4714C134.075 90.5264 134.141 90.5859 134.203 90.6493L157.324 114.154C157.653 114.491 157.912 114.89 158.088 115.327C158.263 115.765 158.35 116.233 158.345 116.704C158.34 117.176 158.242 117.642 158.057 118.075C157.873 118.509 157.604 118.902 157.268 119.231Z" fill="#473F47"/>
<path opacity="0.18" d="M74.2678 37.6431V47.9902C74.2678 49.3467 73.7321 50.6479 72.7778 51.609C71.8236 52.5701 70.5287 53.1127 69.1765 53.1181H50.9898V32.5152H69.1765C70.5287 32.5206 71.8236 33.0632 72.7778 34.0243C73.7321 34.9854 74.2678 36.2866 74.2678 37.6431Z" fill="#B8C3D2"/>
<path d="M68.2748 29.7963H34.4242C31.6011 29.7963 29.3126 32.0921 29.3126 34.9242V45.2713C29.3126 48.1033 31.6011 50.3991 34.4242 50.3991H68.2748C71.0978 50.3991 73.3863 48.1033 73.3863 45.2713V34.9242C73.3863 32.0921 71.0978 29.7963 68.2748 29.7963Z" fill="white"/>
<path d="M71.8412 34.111C73.8752 34.111 75.5241 32.4569 75.5241 30.4163C75.5241 28.3758 73.8752 26.7217 71.8412 26.7217C69.8072 26.7217 68.1583 28.3758 68.1583 30.4163C68.1583 32.4569 69.8072 34.111 71.8412 34.111Z" fill="#B8C3D2"/>
<path d="M62.9606 36.3776H39.0291C38.4695 36.3776 38.0159 36.8327 38.0159 37.3941V37.3991C38.0159 37.9605 38.4695 38.4156 39.0291 38.4156H62.9606C63.5202 38.4156 63.9738 37.9605 63.9738 37.3991V37.3941C63.9738 36.8327 63.5202 36.3776 62.9606 36.3776Z" fill="#B8C3D2"/>
<path d="M62.9606 41.8002H39.0291C38.4695 41.8002 38.0159 42.2553 38.0159 42.8167V42.8217C38.0159 43.3831 38.4695 43.8382 39.0291 43.8382H62.9606C63.5202 43.8382 63.9738 43.3831 63.9738 42.8217V42.8167C63.9738 42.2553 63.5202 41.8002 62.9606 41.8002Z" fill="#B8C3D2"/>
<path d="M154.933 135.24C155.15 135.511 155.28 135.842 155.307 136.189C155.334 136.536 155.257 136.884 155.085 137.186C154.905 137.475 154.638 137.698 154.323 137.825C154.008 137.952 153.661 137.976 153.332 137.892C153.216 137.863 153.109 137.808 153.018 137.73C152.83 137.547 152.8 137.222 152.623 137.039C152.438 136.887 152.216 136.788 151.979 136.754C151.561 136.6 151.167 136.386 150.809 136.119C150.751 136.086 150.701 136.041 150.662 135.987C150.626 135.92 150.607 135.844 150.607 135.768C150.52 135.378 150.58 134.969 150.774 134.62C150.88 134.489 151.011 134.38 151.159 134.299C151.438 134.126 151.758 134.03 152.086 134.02C152.342 134.037 152.593 134.096 152.83 134.193C153.504 134.387 154.136 134.704 154.695 135.128" fill="#B8C3D2"/>
<path d="M153.621 132.124L154.75 136.027C154.75 136.027 154.538 137.008 153.342 136.597C152.147 136.185 151.144 133.11 151.144 133.11L153.621 132.124Z" fill="#FCBDBA"/>
<path d="M141.696 140.286C141.388 140.234 141.075 140.212 140.763 140.22C140.607 140.227 140.454 140.266 140.312 140.334C140.171 140.402 140.046 140.498 139.943 140.616C139.794 140.856 139.735 141.141 139.776 141.42C139.817 141.699 139.955 141.954 140.166 142.141C140.591 142.493 141.111 142.709 141.66 142.761C141.993 142.838 142.34 142.838 142.673 142.761C143.094 142.639 143.494 142.288 143.914 142.421C144.098 142.497 144.269 142.602 144.421 142.731C144.708 142.939 145.064 143.031 145.415 142.986C145.767 142.942 146.089 142.765 146.316 142.492C146.437 142.309 146.525 142.106 146.574 141.892C146.751 141.216 146.67 140.367 146.113 139.976C145.454 139.504 144.943 139.829 144.31 140.047C143.465 140.311 142.574 140.393 141.696 140.286Z" fill="#B8C3D2"/>
<path d="M142.243 136.5L143.894 140.566C143.894 140.566 144.841 141.14 145.515 140.886L146.179 140.611L145.596 134.935L142.243 136.5Z" fill="#FCBDBA"/>
<path d="M129.968 95.1724C129.856 95.025 129.709 94.8624 129.532 94.8878C129.355 94.9132 129.324 94.9844 129.218 94.9539C129.152 94.9303 129.095 94.8857 129.056 94.8268C128.804 94.5585 128.524 94.3182 128.22 94.1102C128.035 93.9472 127.812 93.8335 127.572 93.7799C127.396 93.7711 127.222 93.8146 127.072 93.9051C126.921 93.9956 126.801 94.1289 126.726 94.2881C126.575 94.6045 126.537 94.9635 126.619 95.3045C126.709 95.6455 126.845 95.9722 127.025 96.2752C127.133 96.5023 127.271 96.7142 127.435 96.9054C127.941 97.4593 128.782 97.5508 129.461 97.8913C129.534 97.9356 129.615 97.9634 129.699 97.9726C129.771 97.9607 129.84 97.9319 129.899 97.8887C129.958 97.8454 130.006 97.7889 130.039 97.7236C130.301 97.3481 130.46 96.9099 130.5 96.4531C130.463 95.9801 130.277 95.5313 129.968 95.1724Z" fill="#FCBDBA"/>
<path d="M136.554 90.7662C136.472 90.7436 136.385 90.7527 136.31 90.7916C136.268 90.8255 136.231 90.8648 136.199 90.9085C136.057 91.061 135.824 91.0661 135.632 91.1525C135.508 91.215 135.399 91.303 135.312 91.4107C135.224 91.5185 135.161 91.6435 135.125 91.7776C135.058 92.0448 135.029 92.3203 135.039 92.5958C135.026 92.7414 135.041 92.8881 135.084 93.0278C135.107 93.0958 135.149 93.1558 135.205 93.2008C135.26 93.2458 135.327 93.274 135.399 93.2819C135.514 93.2609 135.623 93.214 135.718 93.1447C135.911 93.0384 136.134 93.0024 136.351 93.043C136.629 93.1331 136.894 93.2577 137.141 93.414C137.267 93.4887 137.41 93.5281 137.557 93.5281C137.703 93.5281 137.846 93.4887 137.972 93.414C138.084 93.3129 138.173 93.1878 138.23 93.0481C138.458 92.5399 138.737 91.9758 138.23 91.5641C137.755 91.1491 137.175 90.873 136.554 90.7662Z" fill="#FCBDBA"/>
<path d="M151.61 109.443C151.491 111.581 151.252 113.71 150.895 115.821C150.439 117.915 150.166 120.293 150.166 120.293L154.386 132.49C154.386 132.49 151.817 134.203 150.166 133.537C148.514 132.871 144.335 123.52 144.335 123.52L142.744 112.884L146.954 108.035L151.61 109.443Z" fill="#473F47"/>
<path d="M139.963 108.594C139.963 108.594 136.954 118.489 136.954 121.061C136.954 123.632 140.561 136.307 140.561 136.307C140.561 136.307 144.477 137.638 145.394 136.307L146.311 134.975L144.107 122.219C144.107 122.219 147.228 115.562 147.78 113.849C148.114 112.794 148.353 111.71 148.494 110.612L139.963 108.594Z" fill="#473F47"/>
<path d="M141.229 81.4914C140.878 82.1967 140.653 82.9589 140.566 83.7428C140.526 84.1306 140.588 84.5221 140.745 84.8786C140.902 85.2351 141.15 85.5443 141.462 85.7756C141.654 85.8672 141.833 85.9834 141.994 86.1212C142.562 86.7005 141.913 87.7525 142.238 88.5047C142.368 88.7464 142.583 88.9317 142.84 89.0253C143.098 89.119 143.381 89.1146 143.636 89.0129C143.885 88.895 144.105 88.7231 144.281 88.5096C144.456 88.296 144.582 88.0461 144.649 87.7779C144.794 87.2331 144.859 86.6697 144.841 86.1059L144.897 82.7467C144.977 81.9993 144.86 81.2441 144.558 80.5563C144.356 80.2013 144.06 79.9101 143.701 79.716C143.343 79.5219 142.938 79.4327 142.531 79.4586C141.751 79.6263 141.513 80.8358 141.229 81.4914Z" fill="#FCBDBA"/>
<path d="M129.547 98.2623C129.547 98.2623 135.971 104.02 136.427 104.02C136.883 104.02 139.735 100.402 139.735 100.402L139.963 108.589C140.756 109.059 141.582 109.47 142.435 109.819C143.823 110.388 145.581 110.917 147.116 110.774C150.237 110.49 151.61 109.443 151.61 109.443L149.69 90.1615C149.69 90.1615 146.052 87.534 144.811 87.9355C143.921 88.0947 143.011 88.0947 142.121 87.9355C140.328 87.7017 138.494 90.1615 138.494 90.1615L136.108 98.0235L130.51 96.0313C130.144 96.2628 129.857 96.5996 129.685 96.9976C129.513 97.3957 129.465 97.8365 129.547 98.2623Z" fill="#B8C3D2"/>
<path d="M141.772 77.8475C142.445 77.2326 143.97 76.9785 144.715 76.8972C145.287 76.8154 145.87 76.8575 146.425 77.0205C146.98 77.1836 147.494 77.4638 147.932 77.8425C149.148 79.0012 149.274 80.8917 149.259 82.6298C149.244 84.3679 149.218 86.233 150.232 87.5543C151.103 88.6826 152.527 89.1501 153.636 90.0191C154.184 90.4266 154.639 90.9465 154.971 91.5441C155.303 92.1417 155.504 92.8034 155.561 93.4851C155.819 98.7095 147.866 96.4683 145.237 95.3045C144.771 95.1245 144.344 94.859 143.975 94.5219C143.586 94.1004 143.3 93.5941 143.139 93.043C142.522 91.1759 142.627 89.1442 143.433 87.351C143.555 87.0868 143.686 86.7564 143.519 86.5227C143.428 86.4192 143.313 86.339 143.185 86.2889C142.849 86.1489 142.56 85.915 142.352 85.615C142.145 85.315 142.028 84.9615 142.015 84.5966C142.124 84.0613 142.364 83.5617 142.714 83.1431C142.885 82.9336 143.004 82.6853 143.059 82.4197C143.113 82.1541 143.103 81.8791 143.028 81.6184C142.845 81.2068 142.41 81.0035 142.086 80.7037C141.518 80.1955 141.108 78.8284 141.579 78.0966C141.633 78.006 141.697 77.9224 141.772 77.8475Z" fill="#F6A569"/>
</g>
<defs>
<linearGradient id="paint0_linear_16_42" x1="69.5818" y1="183.921" x2="155.456" y2="-159.012" gradientUnits="userSpaceOnUse">
<stop offset="0.01"/>
<stop offset="0.08" stop-opacity="0.69"/>
<stop offset="0.21" stop-opacity="0.32"/>
<stop offset="1" stop-opacity="0"/>
</linearGradient>
<clipPath id="clip0_16_42">
<rect width="189.129" height="143" fill="white"/>
</clipPath>
</defs>
</svg>
