<svg width="138" height="24" viewBox="0 0 138 24" fill="none" xmlns="http://www.w3.org/2000/svg">
<g filter="url(#filter0_d_68_2)">
<path d="M12.08 17.22C10.6533 17.22 9.4 16.92 8.32 16.32C7.25333 15.7067 6.42 14.8533 5.82 13.76C5.22 12.6667 4.92 11.3933 4.92 9.94C4.92 8.47333 5.21333 7.2 5.8 6.12C6.4 5.02667 7.24 4.18 8.32 3.58C9.4 2.98 10.6533 2.68 12.08 2.68C13.5067 2.68 14.7533 2.98 15.82 3.58C16.9 4.18 17.74 5.02667 18.34 6.12C18.94 7.2 19.24 8.47333 19.24 9.94C19.24 11.3933 18.94 12.6667 18.34 13.76C17.74 14.8533 16.9 15.7067 15.82 16.32C14.7533 16.92 13.5067 17.22 12.08 17.22ZM12.08 14.14C13.12 14.14 13.9333 13.7733 14.52 13.04C15.12 12.2933 15.42 11.26 15.42 9.94C15.42 8.62 15.1267 7.59333 14.54 6.86C13.9533 6.12667 13.1333 5.76 12.08 5.76C11.0267 5.76 10.2067 6.12667 9.62 6.86C9.03333 7.59333 8.74 8.62 8.74 9.94C8.74 11.26 9.03333 12.2933 9.62 13.04C10.2067 13.7733 11.0267 14.14 12.08 14.14ZM27.2017 17.18C26.6951 17.18 26.2817 17.0733 25.9617 16.86C25.6551 16.6467 25.3951 16.3067 25.1817 15.84L20.3417 5.16C20.1284 4.69333 20.0617 4.27333 20.1417 3.9C20.2217 3.52667 20.4084 3.24 20.7017 3.04C20.9951 2.82667 21.3617 2.72 21.8017 2.72C22.3351 2.72 22.7417 2.84 23.0217 3.08C23.3017 3.32 23.5417 3.67333 23.7417 4.14L27.2617 12.3L30.7817 4.12C30.9817 3.65333 31.2217 3.30667 31.5017 3.08C31.7817 2.84 32.1751 2.72 32.6817 2.72C33.0951 2.72 33.4417 2.82667 33.7217 3.04C34.0017 3.25333 34.1751 3.54667 34.2417 3.92C34.3217 4.28 34.2551 4.69333 34.0417 5.16L29.1817 15.84C28.9817 16.3067 28.7217 16.6467 28.4017 16.86C28.0951 17.0733 27.6951 17.18 27.2017 17.18ZM37.8055 17C36.5255 17 35.8855 16.3667 35.8855 15.1V4.8C35.8855 3.53333 36.5255 2.9 37.8055 2.9H44.5855C45.5455 2.9 46.0255 3.36667 46.0255 4.3C46.0255 5.26 45.5455 5.74 44.5855 5.74H39.4055V8.42H44.1455C45.1055 8.42 45.5855 8.89333 45.5855 9.84C45.5855 10.7867 45.1055 11.26 44.1455 11.26H39.4055V14.16H44.5855C45.5455 14.16 46.0255 14.6333 46.0255 15.58C46.0255 16.5267 45.5455 17 44.5855 17H37.8055ZM50.0106 17.18C49.424 17.18 48.9706 17.02 48.6506 16.7C48.3306 16.38 48.1706 15.92 48.1706 15.32V4.76C48.1706 4.16 48.3306 3.7 48.6506 3.38C48.9706 3.06 49.4306 2.9 50.0306 2.9H54.9506C56.5506 2.9 57.784 3.29333 58.6506 4.08C59.5306 4.85333 59.9706 5.93333 59.9706 7.32C59.9706 8.37333 59.704 9.26 59.1706 9.98C58.6506 10.6867 57.8906 11.18 56.8906 11.46C57.6373 11.66 58.2373 12.1733 58.6906 13L59.6906 14.8C59.904 15.2 59.9973 15.58 59.9706 15.94C59.9573 16.3 59.8173 16.6 59.5506 16.84C59.284 17.0667 58.8906 17.18 58.3706 17.18C57.8506 17.18 57.424 17.08 57.0906 16.88C56.7706 16.6667 56.484 16.3267 56.2306 15.86L54.4106 12.52C54.2506 12.2267 54.044 12.0267 53.7906 11.92C53.5506 11.8 53.2706 11.74 52.9506 11.74H51.8506V15.32C51.8506 15.92 51.6906 16.38 51.3706 16.7C51.064 17.02 50.6106 17.18 50.0106 17.18ZM51.8506 9.14H54.2906C55.744 9.14 56.4706 8.56667 56.4706 7.42C56.4706 6.28667 55.744 5.72 54.2906 5.72H51.8506V9.14ZM64.1317 17.18C63.5451 17.18 63.0917 17.02 62.7717 16.7C62.4517 16.38 62.2917 15.92 62.2917 15.32V4.76C62.2917 4.16 62.4517 3.7 62.7717 3.38C63.0917 3.06 63.5517 2.9 64.1517 2.9H69.0717C70.6717 2.9 71.9051 3.29333 72.7717 4.08C73.6517 4.85333 74.0917 5.93333 74.0917 7.32C74.0917 8.37333 73.8251 9.26 73.2917 9.98C72.7717 10.6867 72.0117 11.18 71.0117 11.46C71.7584 11.66 72.3584 12.1733 72.8117 13L73.8117 14.8C74.0251 15.2 74.1184 15.58 74.0917 15.94C74.0784 16.3 73.9384 16.6 73.6717 16.84C73.4051 17.0667 73.0117 17.18 72.4917 17.18C71.9717 17.18 71.5451 17.08 71.2117 16.88C70.8917 16.6667 70.6051 16.3267 70.3517 15.86L68.5317 12.52C68.3717 12.2267 68.1651 12.0267 67.9117 11.92C67.6717 11.8 67.3917 11.74 67.0717 11.74H65.9717V15.32C65.9717 15.92 65.8117 16.38 65.4917 16.7C65.1851 17.02 64.7317 17.18 64.1317 17.18ZM65.9717 9.14H68.4117C69.8651 9.14 70.5917 8.56667 70.5917 7.42C70.5917 6.28667 69.8651 5.72 68.4117 5.72H65.9717V9.14ZM76.7994 17.18C76.1727 17.18 75.7127 16.9667 75.4194 16.54C75.126 16.1133 75.126 15.58 75.4194 14.94L80.3994 4.22C80.6394 3.7 80.9327 3.32 81.2794 3.08C81.626 2.84 82.0327 2.72 82.4994 2.72C82.9527 2.72 83.3527 2.84 83.6994 3.08C84.046 3.32 84.3394 3.7 84.5794 4.22L89.5594 14.94C89.866 15.5933 89.8794 16.1333 89.5994 16.56C89.3194 16.9733 88.8794 17.18 88.2794 17.18C87.746 17.18 87.3327 17.06 87.0394 16.82C86.7594 16.58 86.506 16.1933 86.2794 15.66L85.6394 14.14H79.3394L78.6994 15.66C78.4594 16.1933 78.2127 16.58 77.9594 16.82C77.706 17.06 77.3194 17.18 76.7994 17.18ZM82.4594 6.74L80.5394 11.32H84.4194L82.4994 6.74H82.4594ZM94.9713 17.18C94.3846 17.18 93.9313 17.02 93.6113 16.7C93.2913 16.38 93.1313 15.92 93.1313 15.32V5.9H89.9913C88.9779 5.9 88.4712 5.4 88.4712 4.4C88.4712 3.4 88.9779 2.9 89.9913 2.9H99.9513C100.965 2.9 101.471 3.4 101.471 4.4C101.471 5.4 100.965 5.9 99.9513 5.9H96.8113V15.32C96.8113 15.92 96.6513 16.38 96.3313 16.7C96.0246 17.02 95.5713 17.18 94.9713 17.18ZM104.602 17C103.322 17 102.682 16.3667 102.682 15.1V4.8C102.682 3.53333 103.322 2.9 104.602 2.9H111.382C112.342 2.9 112.822 3.36667 112.822 4.3C112.822 5.26 112.342 5.74 111.382 5.74H106.202V8.42H110.942C111.902 8.42 112.382 8.89333 112.382 9.84C112.382 10.7867 111.902 11.26 110.942 11.26H106.202V14.16H111.382C112.342 14.16 112.822 14.6333 112.822 15.58C112.822 16.5267 112.342 17 111.382 17H104.602ZM116.888 17C115.608 17 114.968 16.3667 114.968 15.1V4.8C114.968 3.53333 115.608 2.9 116.888 2.9H120.808C123.248 2.9 125.141 3.51333 126.488 4.74C127.834 5.96667 128.508 7.7 128.508 9.94C128.508 12.18 127.834 13.92 126.488 15.16C125.141 16.3867 123.248 17 120.808 17H116.888ZM118.648 14.02H120.568C121.968 14.02 123.001 13.6867 123.668 13.02C124.348 12.34 124.688 11.3133 124.688 9.94C124.688 8.56667 124.348 7.54667 123.668 6.88C122.988 6.21333 121.954 5.88 120.568 5.88H118.648V14.02ZM131.349 17.12C130.749 17.12 130.269 16.94 129.909 16.58C129.562 16.2067 129.389 15.7333 129.389 15.16C129.389 14.6 129.562 14.14 129.909 13.78C130.269 13.42 130.749 13.24 131.349 13.24C131.962 13.24 132.442 13.42 132.789 13.78C133.136 14.14 133.309 14.6 133.309 15.16C133.309 15.7333 133.136 16.2067 132.789 16.58C132.442 16.94 131.962 17.12 131.349 17.12Z" fill="url(#paint0_linear_68_2)"/>
</g>
<defs>
<filter id="filter0_d_68_2" x="0.920013" y="0.679993" width="136.389" height="22.54" filterUnits="userSpaceOnUse" color-interpolation-filters="sRGB">
<feFlood flood-opacity="0" result="BackgroundImageFix"/>
<feColorMatrix in="SourceAlpha" type="matrix" values="0 0 0 0 0 0 0 0 0 0 0 0 0 0 0 0 0 0 127 0" result="hardAlpha"/>
<feOffset dy="2"/>
<feGaussianBlur stdDeviation="2"/>
<feComposite in2="hardAlpha" operator="out"/>
<feColorMatrix type="matrix" values="0 0 0 0 0 0 0 0 0 0 0 0 0 0 0 0 0 0 0.25 0"/>
<feBlend mode="normal" in2="BackgroundImageFix" result="effect1_dropShadow_68_2"/>
<feBlend mode="normal" in="SourceGraphic" in2="effect1_dropShadow_68_2" result="shape"/>
</filter>
<linearGradient id="paint0_linear_68_2" x1="69.5" y1="-3" x2="69.5" y2="24" gradientUnits="userSpaceOnUse">
<stop stop-color="white"/>
<stop offset="1" stop-color="#C8D9EE"/>
</linearGradient>
</defs>
</svg>
